HIERARCHY
ROOT Hips
{
	OFFSET -3.958830 18.904000 13.208200
	CHANNELS 6 Xposition Yposition Zposition Zrotation Yrotation Xrotation 
	JOINT LHipJoint
	{
		OFFSET 0.000000 0.000000 0.000000
		CHANNELS 3 Zrotation Yrotation Xrotation
		JOINT LeftUpLeg
		{
			OFFSET 1.800000 -1.400000 0.085000
			CHANNELS 3 Zrotation Yrotation Xrotation
			JOINT LeftLeg
			{
				OFFSET 2.215000 -6.000000 0.000000
				CHANNELS 3 Zrotation Yrotation Xrotation
				JOINT LeftFoot
				{
					OFFSET 2.500000 -6.900000 0.000000
					CHANNELS 3 Zrotation Yrotation Xrotation
					JOINT LeftToeBase
					{
						OFFSET 0.200000 -0.500000 1.950000
						CHANNELS 3 Zrotation Yrotation Xrotation
						End Site
						{
							OFFSET 0.000000 0.000000 0.000000
						}
					}
				}
			}
		}
	}
	JOINT RHipJoint
	{
		OFFSET 0.000000 0.000000 0.000000
		CHANNELS 3 Zrotation Yrotation Xrotation
		JOINT RightUpLeg
		{
			OFFSET -1.800000 -1.400000 0.085000
			CHANNELS 3 Zrotation Yrotation Xrotation
			JOINT RightLeg
			{
				OFFSET -2.215000 -6.000000 0.000000
				CHANNELS 3 Zrotation Yrotation Xrotation
				JOINT RightFoot
				{
					OFFSET -2.500000 -6.900000 0.000000
					CHANNELS 3 Zrotation Yrotation Xrotation
					JOINT RightToeBase
					{
						OFFSET -0.200000 -0.500000 1.950000
						CHANNELS 3 Zrotation Yrotation Xrotation
						End Site
						{
							OFFSET 0.000000 0.000000 0.000000
						}
					}
				}
			}
		}
	}
	JOINT LowerBack
	{
		OFFSET 0.000000 0.000000 0.000000
		CHANNELS 3 Zrotation Yrotation Xrotation
		JOINT Spine
		{
			OFFSET -0.087000 1.940000 -0.288900
			CHANNELS 3 Zrotation Yrotation Xrotation
			JOINT Spine1
			{
				OFFSET 0.000000 1.950000 0.060000
				CHANNELS 3 Zrotation Yrotation Xrotation
				JOINT Neck
				{
					OFFSET 0.000000 0.000000 0.000000
					CHANNELS 3 Zrotation Yrotation Xrotation
					JOINT Neck1
					{
						OFFSET 0.000000 1.600000 0.340000
						CHANNELS 3 Zrotation Yrotation Xrotation
						JOINT Head
						{
							OFFSET 0.000000 1.667000 -0.240000
							CHANNELS 3 Zrotation Yrotation Xrotation
							End Site
							{
								OFFSET 0.000000 0.000000 0.000000
							}
						}
					}
				}
				JOINT LeftShoulder
				{
					OFFSET 0.000000 0.000000 0.000000
					CHANNELS 3 Zrotation Yrotation Xrotation
					JOINT LeftArm
					{
						OFFSET 2.700000 1.550000 -0.730000
						CHANNELS 3 Zrotation Yrotation Xrotation
						JOINT LeftForeArm
						{
							OFFSET 5.450000 0.000000 0.000000
							CHANNELS 3 Zrotation Yrotation Xrotation
							JOINT LeftHand
							{
								OFFSET 3.450000 0.000000 0.000000
								CHANNELS 3 Zrotation Yrotation Xrotation
								JOINT LeftHandIndex1
								{
									OFFSET 0.750000 0.000000 0.000000
									CHANNELS 3 Zrotation Yrotation Xrotation
									End Site
									{
										OFFSET 0.000000 0.000000 0.000000
									}
								}
							}
						}
					}
				}
				JOINT RightShoulder
				{
					OFFSET 0.000000 0.000000 0.000000
					CHANNELS 3 Zrotation Yrotation Xrotation
					JOINT RightArm
					{
						OFFSET -2.700000 1.550000 -0.730000
						CHANNELS 3 Zrotation Yrotation Xrotation
						JOINT RightForeArm
						{
							OFFSET -5.450000 0.000000 0.000000
							CHANNELS 3 Zrotation Yrotation Xrotation
							JOINT RightHand
							{
								OFFSET -3.450000 0.000000 0.000000
								CHANNELS 3 Zrotation Yrotation Xrotation
								JOINT RightHandIndex1
								{
									OFFSET -0.750000 0.000000 0.000000
									CHANNELS 3 Zrotation Yrotation Xrotation
									End Site
									{
										OFFSET 0.000000 0.000000 0.000000
									}
								}
							}
						}
					}
				}
			}
		}
	}
}
MOTION
Frames: 4
Frame Time: 0.016667
-0.010360 17.311520 0.007220 -5.225639 -2.908544 -8.146007 -14.759627 13.289693 2.983094 20.349674 -0.561361 -12.929734 -11.329939 11.645017 27.148347 -0.337003 7.717424 2.090239 0.025940 -0.304260 -0.245830 18.491032 -11.726694 2.071761 -13.792376 0.559078 -10.296995 6.026983 -7.957197 25.073931 -0.262738 -5.224802 2.698267 0.026380 0.998220 0.289190 -4.436577 -0.542210 -7.262054 15.654696 -2.620365 12.143296 -11.135956 0.426031 7.868046 3.192632 -3.576327 -8.628696 -7.078092 4.460967 31.829856 1.745050 -0.852330 -2.274660 -7.136567 2.936447 2.012593 -9.020518 9.523063 1.997715 147.409026 -19.656889 -68.306649 -4.240821 3.041804 0.461860 0.533200 -0.407210 0.316050 0.319904 -0.253864 5.156060 1.296853 -6.816293 -0.167265 -149.169934 21.074408 -73.799077 1.743137 -2.089923 -0.526540 0.546830 0.362020 -0.046990 
-0.021390 17.305500 0.025470 -5.089549 -3.089483 -8.146677 -14.756927 13.309724 2.971638 20.255869 -0.584838 -12.728899 -11.288801 11.666622 27.214721 -0.326887 7.731208 2.091314 0.015160 -0.321890 -0.248050 18.491814 -11.724613 2.065537 -13.968020 0.522844 -10.373545 6.119529 -8.065443 25.340843 -0.251663 -5.272253 2.683597 0.019530 1.003360 0.282360 -4.439075 -0.580709 -7.249324 15.962957 -2.616902 11.788831 -10.829484 0.299394 7.515494 3.052177 -3.484570 -8.601733 -6.958621 4.288142 31.769177 1.588620 -0.969300 -1.397530 -7.326277 2.600475 1.966423 -7.648490 9.808534 2.071940 147.285016 -19.903276 -67.997673 -4.257567 3.035486 0.444950 0.542280 -0.426350 0.309500 0.763985 -0.058520 5.159352 1.042763 -7.609712 -0.301958 -148.965564 21.600613 -74.698935 1.746574 -2.093036 -0.529350 0.538660 0.365190 -0.049130 
-0.036730 17.298270 0.043500 -4.775404 -3.168427 -7.901047 -14.767837 13.315137 2.942530 19.917735 -0.620802 -12.781718 -11.145308 11.606466 27.266888 -0.315742 7.700554 2.110094 0.007100 -0.320260 -0.265750 18.484883 -11.716421 2.060630 -14.325071 0.524433 -10.668263 6.346880 -8.184068 25.485306 -0.239354 -5.324811 2.662202 0.022520 1.022360 0.289320 -4.413651 -0.599163 -7.206710 15.683819 -2.388735 11.037519 -10.298181 0.296403 7.529087 2.890611 -3.261826 -8.506288 -6.533309 3.960923 31.244345 1.359970 -1.156010 -0.630570 -7.280915 2.429384 1.892318 -6.698065 9.947876 2.028027 147.026594 -19.876366 -66.952601 -4.283480 3.051829 0.408410 0.565060 -0.443400 0.314480 1.067447 -0.091866 5.136666 1.048457 -8.429679 -0.407102 -148.721587 22.052966 -75.534839 1.748292 -2.113554 -0.519730 0.530090 0.366280 -0.034040 
-0.049270 17.290630 0.057980 -4.536504 -3.258828 -7.332709 -14.771674 13.269595 2.909804 19.591324 -0.659483 -13.128966 -11.060737 11.537277 27.204025 -0.318210 7.663491 2.133423 -0.018400 -0.330870 -0.311410 18.493325 -11.702123 2.070589 -14.688448 0.600395 -11.284848 6.823694 -8.334788 25.474697 -0.205458 -5.388114 2.638703 0.029520 1.069300 0.292660 -4.422484 -0.526402 -7.145278 15.597148 -2.124855 10.004623 -10.035730 0.334513 7.483909 2.771590 -3.005522 -8.292696 -5.894118 3.748057 30.093968 1.209720 -1.314710 0.681820 -7.266291 2.446757 1.655413 -5.717489 10.033777 1.930534 146.629529 -19.794108 -65.489613 -4.332232 3.085260 0.349050 0.610750 -0.488850 0.320280 1.303937 -0.346305 5.118980 1.075764 -9.006821 -0.235520 -148.851920 22.568069 -77.082665 1.744897 -2.141668 -0.520560 0.525460 0.382970 -0.012820 
